<svg version="1.1" id="Layer_1" xmlns="http://www.w3.org/2000/svg" xmlns:xlink="http://www.w3.org/1999/xlink" x="0px" y="0px"
	 viewBox="0 0 33 32.3" style="enable-background:new 0 0 33 32.3;" xml:space="preserve">
<style type="text/css">
	.st0{fill:#EEF2F3;}
	.st1{fill:none;stroke:#FF0000;stroke-width:0.5;stroke-opacity:0.16;} /* Change stroke color to red (#FF0000) */
	.st2{clip-path:url(#SVGID_00000161590557552892365510000001362074056062038402_);}
	.st3{fill:#FF0000;} /* Change fill color to red (#FF0000) */
	.st4{fill:none;stroke:#FF0000;stroke-width:0.5;stroke-linecap:round;stroke-linejoin:round;} /* Change stroke color to red (#FF0000) */
</style>
<rect width="100%" height="100%" fill="#FFEBEE"/> <!-- Light red background -->
<g>
	<path class="st0" d="M0,3.9c0-1.8,0-2.7,0.5-3.3c0,0,0.1-0.1,0.1-0.1C1.2,0,2.1,0,3.9,0h25.2c1.8,0,2.7,0,3.3,0.5
		c0,0,0.1,0.1,0.1,0.1C33,1.2,33,2.1,33,3.9v24.5c0,1.8,0,2.7-0.5,3.3c0,0-0.1,0.1-0.1,0.1c-0.6,0.5-1.5,0.5-3.3,0.5H3.9
		c-1.8,0-2.7,0-3.3-0.5c0,0-0.1-0.1-0.1-0.1C0,31.1,0,30.2,0,28.4V3.9z"/>
	<path class="st1" d="M3.9,0.2h25.2c0.9,0,1.6,0,2.1,0.1c0.5,0.1,0.8,0.2,1,0.4c0,0,0.1,0.1,0.1,0.1c0.2,0.2,0.3,0.5,0.4,1
		c0.1,0.5,0.1,1.2,0.1,2.1v24.5c0,0.9,0,1.6-0.1,2.1c-0.1,0.5-0.2,0.8-0.4,1c0,0-0.1,0.1-0.1,0.1c-0.2,0.2-0.5,0.3-1,0.4
		C30.7,32,30,32,29.1,32H3.9C3,32,2.3,32,1.8,32c-0.5-0.1-0.8-0.2-1-0.4c0,0-0.1-0.1-0.1-0.1c-0.2-0.2-0.3-0.5-0.4-1
		c-0.1-0.5-0.1-1.2-0.1-2.1V3.9c0-0.9,0-1.6,0.1-2.1c0.1-0.5,0.2-0.8,0.4-1c0,0,0.1-0.1,0.1-0.1c0.2-0.2,0.5-0.3,1-0.4
		C2.3,0.3,3,0.2,3.9,0.2z"/>
	<g>
		<defs>
			<rect id="SVGID_1_" x="5.6" y="6.7" width="19" height="19"/>
		</defs>
		<clipPath id="SVGID_00000133503365652525714350000003303835654658942632_">
			<use xlink:href="#SVGID_1_"  style="overflow:visible;"/>
		</clipPath>
		<g style="clip-path:url(#SVGID_00000133503365652525714350000003303835654658942632_);">
			<path class="st3" d="M17.7,12c0.3,0,0.5-0.1,0.7-0.3c0.2-0.2,0.3-0.4,0.3-0.7s-0.1-0.5-0.3-0.7c-0.2-0.2-0.4-0.3-0.7-0.3
				s-0.5,0.1-0.7,0.3c-0.2,0.2-0.3,0.4-0.3,0.7s0.1,0.5,0.3,0.7C17.2,11.9,17.5,12,17.7,12z M15,7.3c-0.3,0-0.5,0-0.7,0.1
				c-0.2,0.1-0.4,0.2-0.6,0.4l-6.3,6.3c-0.2,0.2-0.3,0.4-0.4,0.6c-0.1,0.2-0.1,0.5-0.1,0.7c0,0.2,0,0.5,0.1,0.7
				c0.1,0.2,0.2,0.4,0.4,0.6l4.7,4.7c0.2,0.2,0.6,0.4,0.9,0.5c0.3,0.1,0.7,0.1,1,0v-1.1c-0.2,0.1-0.4,0.2-0.6,0.2
				c-0.2,0-0.4-0.1-0.6-0.3L8,16.1c-0.1-0.1-0.2-0.2-0.2-0.3c0-0.1-0.1-0.2-0.1-0.4c0-0.1,0-0.2,0.1-0.4s0.1-0.2,0.2-0.3l6.3-6.3
				c0.1-0.1,0.2-0.2,0.3-0.2c0.1,0,0.2-0.1,0.4-0.1l4.6,0c0.3,0,0.5,0.1,0.7,0.3c0.2,0.2,0.3,0.4,0.3,0.7l0,4.7c0,0.1,0,0.2-0.1,0.4
				c0,0.1-0.1,0.2-0.2,0.3l-0.1,0.1c0.2,0.2,0.4,0.5,0.6,0.8l0.2-0.2c0.2-0.2,0.3-0.4,0.4-0.6c0.1-0.2,0.1-0.5,0.1-0.7l0-4.7
				c0-0.5-0.2-1-0.6-1.3c-0.4-0.4-0.8-0.6-1.3-0.6L15,7.3z"/>
			<path class="st3" d="M15.3,18.6l4.5,2l0.3-0.7l-4.5-2L15.3,18.6z M20.4,25.8v-5.5h-0.8v5.5H20.4z M20.2,20.6l4.5-2l-0.3-0.7
				l-4.5,2L20.2,20.6z"/>
			<path class="st4" d="M15.5,23.6v-5.1c0-0.1,0-0.1,0-0.2c0,0,0.1-0.1,0.1-0.1l4.2-1.9c0,0,0.1,0,0.1,0s0.1,0,0.1,0l4.2,1.9
				c0.1,0,0.1,0.1,0.1,0.1c0,0,0,0.1,0,0.2v5.1c0,0.1,0,0.1,0,0.2c0,0-0.1,0.1-0.1,0.1l-4.2,1.9c0,0-0.1,0-0.1,0s-0.1,0-0.1,0
				l-4.2-1.9c-0.1,0-0.1-0.1-0.1-0.1C15.5,23.7,15.5,23.6,15.5,23.6z"/>
			<path class="st4" d="M17.8,17.2l4.3,1.9c0.1,0,0.1,0.1,0.1,0.1c0,0,0,0.1,0,0.2v1.8"/>
		</g>
	</g>
</g>
</svg>
